<svg id="Layer_1" data-name="Layer 1" xmlns="http://www.w3.org/2000/svg" viewBox="0 0 1092.64 168.85"><defs><style>.cls-1{fill:#fff;}.cls-2{fill:#201c24;}</style></defs><rect class="cls-1" x="0.32" y="0.45" width="1092" height="168.63"/><path class="cls-2" d="M98.45,109.85l11.61-84.33H95.57l-8,58.36A34.89,34.89,0,0,1,98.45,109.85Z"/><path class="cls-2" d="M84.06,90.69a34.14,34.14,0,0,0-23.64-9.34l-.31,2.23a40.33,40.33,0,0,1,17.71,61.19c.49-.68,2-1.25,2.68-1.75q1.38-1,2.64-2.1A33.92,33.92,0,0,0,91.87,102a33.84,33.84,0,0,0-7.7-11.19A1.14,1.14,0,0,1,84.06,90.69Z"/><path class="cls-2" d="M145.47,82.8a47.62,47.62,0,0,1-13.72-26.22c-1-5.74.08-18.53,1.1-23.93h-7.21L110.06,144h15.18l8.09-56.7c.81,1,1.67,1.93,2.57,2.84a40.35,40.35,0,0,0,13.42,9l.18.07a41.79,41.79,0,0,0,4.43,1.47L148,144.77H163.2l6-43,.34-2.43.42-3.73A48,48,0,0,1,145.47,82.8Z"/><polygon class="cls-2" points="51.82 40.15 37.24 144.4 51.73 144.4 60.23 83.64 60.55 81.35 66.31 40.15 51.82 40.15"/><path class="cls-2" d="M1010.72,92.27a34.14,34.14,0,0,0-23.64-9.34l-.31,2.24a40.32,40.32,0,0,1,17.71,61.18c.49-.68,2-1.24,2.69-1.75q1.37-1,2.64-2.1a34.18,34.18,0,0,0,1-50.12Z"/><path class="cls-2" d="M1039.18,100.5a45.15,45.15,0,0,0,33.73,1.73l-.55-2.94a53.58,53.58,0,0,1-48.26-69.54c-.33,1.06-2,2.4-2.64,3.34a45.6,45.6,0,0,0-6.21,12.19A45.47,45.47,0,0,0,1039,100.41Z"/><path class="cls-2" d="M247.81,42h8l-4.42,32.89h41.47L297.3,42h7.86l-10.94,80.89H286.3l5.49-40.36H250.22l-5.32,40.36h-8Z"/><path class="cls-2" d="M372.58,122.92h-7.75l1.18-9q-10.36,10.53-23.73,10.53-12.16,0-20-7.86t-7.83-20.24a33.56,33.56,0,0,1,10.21-24.55q10.21-10.26,24-10.26a26.66,26.66,0,0,1,13.12,3.13,25.2,25.2,0,0,1,9.49,9.78l1.39-11.37h8Zm-29.44-5.5a26.59,26.59,0,0,0,13.48-3.49,25.22,25.22,0,0,0,9.64-10,29.43,29.43,0,0,0,3.56-14.26q0-9.28-5.86-15.1T348.73,68.7a25.47,25.47,0,0,0-18.85,8,26.85,26.85,0,0,0-7.83,19.57q0,9.52,5.86,15.34T343.14,117.42Z"/><path class="cls-2" d="M398.44,63.09h7.38l-1.24,9.31q9.14-10.85,21.23-10.85,9.3,0,15,5.69t5.69,15.31a110.79,110.79,0,0,1-1.23,12.93l-3.71,27.44H434l3.71-27.43a108.55,108.55,0,0,0,1.19-13,13.84,13.84,0,0,0-3.81-10.15,13.43,13.43,0,0,0-10-3.86,22,22,0,0,0-19.38,11.63q-2.87,5.37-4.4,17l-3.43,25.85h-7.55Z"/><path class="cls-2" d="M518.19,122.92h-7.75l1.18-9q-10.37,10.53-23.73,10.53-12.17,0-20-7.86t-7.83-20.24a33.56,33.56,0,0,1,10.21-24.55q10.22-10.26,24-10.26a26.66,26.66,0,0,1,13.12,3.13,25.2,25.2,0,0,1,9.49,9.78l1.39-11.37h8Zm-29.44-5.5a26.59,26.59,0,0,0,13.48-3.49,25.22,25.22,0,0,0,9.64-10,29.43,29.43,0,0,0,3.56-14.26q0-9.28-5.86-15.1T494.34,68.7a25.47,25.47,0,0,0-18.85,8,26.85,26.85,0,0,0-7.83,19.57q0,9.52,5.86,15.34T488.75,117.42Z"/><path class="cls-2" d="M544.05,63.09h7.38L550.2,72.4q9.12-10.85,21.23-10.85,9.29,0,15,5.69t5.69,15.31a110.79,110.79,0,0,1-1.23,12.93l-3.71,27.44h-7.54l3.71-27.43a108.55,108.55,0,0,0,1.19-13,13.84,13.84,0,0,0-3.81-10.15,13.43,13.43,0,0,0-10-3.86,22,22,0,0,0-19.38,11.63q-2.87,5.37-4.4,17l-3.43,25.85H536Z"/><path class="cls-2" d="M647.14,42h8l-4.42,32.89h41.47L696.63,42h7.86l-10.94,80.89h-7.92l5.49-40.36H649.55l-5.32,40.36h-8Z"/><path class="cls-2" d="M719.35,63.09h7.27l-7.81,59.83h-7.55Zm6-24.63A6.15,6.15,0,1,1,721,40.27,5.93,5.93,0,0,1,725.39,38.46Z"/><path class="cls-2" d="M741.29,63.09h7.53l-8.48,63.57q-1.58,11.9-4.44,15.79a8.75,8.75,0,0,1-7.34,3.9,16.4,16.4,0,0,1-6.36-1.55l.87-6.59a6.64,6.64,0,0,0,3.6,1.21,3.69,3.69,0,0,0,3.25-1.75c1.12-1.75,1.93-4.6,2.44-8.53Zm6.07-24.63a5.86,5.86,0,0,1,4.32,1.81,6.15,6.15,0,0,1-4.32,10.51,6.16,6.16,0,1,1,0-12.32Z"/><path class="cls-2" d="M817.33,122.92h-7.75l1.18-9Q800.4,124.46,787,124.46q-12.16,0-20-7.86t-7.83-20.24a33.56,33.56,0,0,1,10.21-24.55q10.22-10.26,24-10.26a26.66,26.66,0,0,1,13.12,3.13,25.2,25.2,0,0,1,9.49,9.78l1.39-11.37h8Zm-29.44-5.5a26.59,26.59,0,0,0,13.48-3.49,25.22,25.22,0,0,0,9.64-10,29.43,29.43,0,0,0,3.56-14.26q0-9.28-5.86-15.1T793.48,68.7a25.47,25.47,0,0,0-18.85,8,26.85,26.85,0,0,0-7.83,19.57q0,9.52,5.86,15.34T787.89,117.42Z"/><path class="cls-2" d="M837.9,63.09H879l-35.7,53h32.46l-.88,6.82h-45.2L865.55,69.8H837Z"/><path class="cls-2" d="M889.54,63.09h7.27L889,122.92h-7.55Zm6-24.63a6.15,6.15,0,1,1-4.37,1.81A5.93,5.93,0,0,1,895.58,38.46Z"/></svg>